<svg xmlns="http://www.w3.org/2000/svg" width="512" height="512" viewBox="0 0 512 512" version="1.1"><path d="M 265.500 217.813 C 259.520 220.739, 256.847 223.138, 251.642 230.250 C 247.669 235.679, 244.117 235.436, 236.352 229.204 C 225.818 220.750, 214.723 217.548, 201.487 219.142 C 188.800 220.669, 174.940 230.356, 169.120 241.764 C 166.363 247.169, 164 256.311, 164 261.575 C 164 264.300, 163.267 266.662, 161.872 268.436 C 159.744 271.141, 159.741 271.142, 150.080 270.457 C 134.355 269.342, 121.759 273.179, 111.503 282.206 C 102.359 290.255, 94.971 305.113, 95.020 315.355 C 95.039 319.267, 95.324 319.668, 100.105 322.500 C 107.317 326.772, 115 335.137, 115 338.718 C 115 344.484, 109.439 348.357, 104.729 345.872 C 103.503 345.225, 100.222 342.627, 97.439 340.098 C 77.272 321.777, 47.122 323.156, 28.445 343.254 C 1.290 372.476, 18.679 419.793, 58.500 425.032 C 63.925 425.746, 125.405 425.986, 249.500 425.777 C 456.258 425.429, 436.379 426.256, 455 417.222 C 463.145 413.271, 465.871 411.248, 474.114 403.040 C 482.434 394.755, 484.344 392.190, 488.304 383.983 C 494.679 370.772, 496.321 363.848, 496.365 350 C 496.405 337.229, 494.700 328.840, 489.893 318.154 C 480.716 297.753, 460.748 281.265, 438.865 276.019 C 429.923 273.876, 415.094 273.385, 407 274.966 C 401.656 276.009, 398.154 274.703, 396.364 271 C 395.700 269.625, 393.778 265.534, 392.093 261.908 C 380.440 236.828, 349.658 226.938, 324.684 240.249 C 309.953 248.101, 301.039 261.867, 299.018 279.888 C 298.084 288.219, 296.087 291.028, 291.139 290.968 C 285.049 290.895, 282.958 286.501, 284.092 276.164 C 285.615 262.277, 291.081 250.347, 300.660 240 C 306.041 234.189, 306.191 233.876, 304.993 230.982 C 303.270 226.825, 296.917 220.513, 291.791 217.869 C 288.725 216.287, 285.216 215.544, 279.500 215.266 C 272.252 214.915, 270.936 215.154, 265.500 217.813 M 228.487 319.742 C 217.794 323.561, 207.257 332.199, 203.383 340.323 C 201.826 343.589, 201.438 343.780, 195.125 344.404 C 181.455 345.753, 168.495 352.087, 160.259 361.443 C 154.886 367.547, 149.759 377.634, 150.608 380.430 C 151.750 384.191, 154.151 386, 158 386 C 162.078 386, 163.245 384.985, 167.260 377.942 C 170.581 372.119, 177.839 365.425, 183.824 362.667 C 187.619 360.919, 190.384 360.512, 198.500 360.507 C 207.256 360.501, 209.209 360.832, 214.196 363.170 C 221.121 366.416, 227.992 373.078, 231.447 379.896 C 233.982 384.898, 237.047 386.895, 241 386.121 C 243.636 385.604, 247 381.732, 247 379.216 C 247 371.696, 232.776 354.968, 222.225 350.079 C 219.351 348.748, 217 347.286, 217 346.832 C 217 344.980, 224.136 338.287, 228.360 336.177 C 237.996 331.364, 249.857 332.697, 258.009 339.507 C 263.528 344.118, 266.445 344.802, 269.837 342.280 C 271.815 340.809, 272.578 339.264, 272.802 336.272 C 273.075 332.615, 272.707 331.900, 268.802 328.498 C 266.436 326.437, 261.575 323.361, 258 321.663 C 252.511 319.054, 250.101 318.525, 242.500 318.262 C 235.759 318.029, 232.242 318.401, 228.487 319.742" stroke="none" fill="#ece8e0" fill-rule="evenodd"/><path d="M 331.845 87.068 C 285.908 92.763, 245.740 121.211, 225.092 162.674 C 217.686 177.547, 210.447 202.684, 213.353 203.441 C 213.984 203.605, 217.186 204.245, 220.470 204.863 C 225.847 205.875, 237.861 211.029, 242.174 214.173 C 243.591 215.207, 244.563 214.736, 248.495 211.112 C 268.260 192.892, 301.367 197.268, 316.130 220.051 C 317.894 222.773, 319.477 225, 319.647 225 C 319.818 225, 323.455 223.770, 327.729 222.267 C 334.707 219.812, 336.827 219.538, 348.500 219.582 C 360.105 219.625, 362.265 219.919, 368.630 222.318 C 372.551 223.797, 377.951 226.213, 380.630 227.687 C 387.657 231.555, 400.931 245.274, 404.801 252.667 L 408.028 258.833 420.264 258.803 C 438.828 258.757, 455.079 263.425, 470.256 273.164 C 472.907 274.865, 475.234 276.087, 475.427 275.879 C 476.579 274.634, 482.271 254.487, 483.665 246.724 C 485.846 234.567, 485.809 212.555, 483.586 200.172 C 478.747 173.219, 466.472 149.044, 447.557 129.218 C 427.461 108.153, 403.268 94.761, 374.851 88.970 C 363.180 86.591, 342.918 85.695, 331.845 87.068 M 418.762 273.707 C 420.006 273.946, 421.806 273.937, 422.762 273.687 C 423.718 273.437, 422.700 273.241, 420.500 273.252 C 418.300 273.263, 417.518 273.468, 418.762 273.707 M 197.250 359.689 C 198.213 359.941, 199.787 359.941, 200.750 359.689 C 201.713 359.438, 200.925 359.232, 199 359.232 C 197.075 359.232, 196.287 359.438, 197.250 359.689 M 473.437 404.250 L 470.500 407.500 473.750 404.563 C 476.779 401.825, 477.460 401, 476.687 401 C 476.515 401, 475.052 402.462, 473.437 404.250" stroke="none" fill="#ffb500" fill-rule="evenodd"/><path d="M 325.500 72.390 C 302.576 76.174, 282.809 83.850, 263.500 96.466 C 230.154 118.255, 205.477 155.255, 198.323 194.189 L 196.543 203.878 192.165 204.980 C 177.585 208.651, 161.306 222.144, 154.739 236 C 152.784 240.125, 150.644 245.975, 149.985 249 L 148.785 254.500 141.400 254.721 C 112.343 255.589, 85.833 277.835, 80.615 305.727 C 79.441 312.004, 79.171 312.481, 76.924 312.245 C 68.230 311.331, 54.788 311.863, 49 313.350 C 36.834 316.476, 28.342 321.438, 18.974 330.894 C 5.626 344.367, 0.045 357.804, 0.015 376.540 C -0.003 387.639, 1.775 394.958, 7.165 405.966 C 15.012 421.991, 30.593 434.420, 48.609 439.028 C 56.148 440.956, 60.477 441, 243.049 441 C 409.299 441, 430.696 440.826, 438.140 439.415 C 468.300 433.697, 494.854 411.541, 506.014 382.784 C 510.789 370.479, 512.323 360.482, 511.721 345.581 C 510.904 325.333, 505.376 309.828, 493.359 294.074 C 487.916 286.937, 487.744 286.527, 488.945 283.574 C 492.407 275.067, 497.048 259.466, 498.636 251 C 501.359 236.478, 501.105 207.946, 498.129 194 C 491.561 163.223, 477.814 137.727, 456.045 115.951 C 434.292 94.190, 408.923 80.400, 378.500 73.800 C 366.784 71.258, 337.139 70.470, 325.500 72.390 M 331.845 87.068 C 285.908 92.763, 245.740 121.211, 225.092 162.674 C 217.686 177.547, 210.447 202.684, 213.353 203.441 C 213.984 203.605, 217.186 204.245, 220.470 204.863 C 225.847 205.875, 237.861 211.029, 242.174 214.173 C 243.591 215.207, 244.563 214.736, 248.495 211.112 C 268.260 192.892, 301.367 197.268, 316.130 220.051 C 317.894 222.773, 319.477 225, 319.647 225 C 319.818 225, 323.455 223.770, 327.729 222.267 C 334.707 219.812, 336.827 219.538, 348.500 219.582 C 360.105 219.625, 362.265 219.919, 368.630 222.318 C 372.551 223.797, 377.951 226.213, 380.630 227.687 C 387.657 231.555, 400.931 245.274, 404.801 252.667 L 408.028 258.833 420.264 258.803 C 438.828 258.757, 455.079 263.425, 470.256 273.164 C 472.907 274.865, 475.234 276.087, 475.427 275.879 C 476.579 274.634, 482.271 254.487, 483.665 246.724 C 485.846 234.567, 485.809 212.555, 483.586 200.172 C 478.747 173.219, 466.472 149.044, 447.557 129.218 C 427.461 108.153, 403.268 94.761, 374.851 88.970 C 363.180 86.591, 342.918 85.695, 331.845 87.068 M 273.281 215.065 C 264.842 216.212, 260.263 219.468, 250.326 231.391 C 246.968 235.420, 243.194 234.880, 236.846 229.461 C 222.656 217.349, 204.691 214.955, 188.352 222.998 C 174.090 230.020, 164 245.563, 164 260.514 C 164 265.098, 163.564 266.527, 161.552 268.539 C 159.177 270.914, 158.795 270.969, 148.802 270.364 C 132.624 269.386, 121.594 273.035, 110.736 282.958 C 101.624 291.286, 95.986 302.292, 94.750 314.164 L 94.265 318.828 101.080 323.484 C 110.072 329.628, 115 335.122, 115 339.003 C 115 345.676, 106.674 348.483, 101.924 343.411 C 97.530 338.718, 85.026 331.088, 78.351 329.027 C 52.171 320.940, 23.615 337.346, 16.531 364.542 C 9.527 391.431, 28.352 420.250, 56 424.968 C 60.643 425.760, 115.507 425.993, 248 425.783 C 455.825 425.453, 436.691 426.167, 453.500 418.117 C 467.444 411.439, 476.850 403.089, 485.289 389.898 C 493.307 377.363, 496.492 365.853, 496.468 349.500 C 496.446 335.030, 494.857 328.285, 488.350 315.038 C 484.424 307.044, 482.289 304.169, 474.601 296.520 C 469.456 291.401, 462.674 285.831, 459 283.706 C 445.299 275.786, 427.497 272.215, 411.260 274.130 C 399.337 275.536, 398.028 274.991, 394.976 267.341 C 388.426 250.927, 376.160 239.621, 360.465 235.533 C 340.288 230.277, 318.136 238.892, 306.824 256.393 C 302.541 263.021, 299 273.231, 299 278.956 C 299 284.415, 297.251 288.565, 294.403 289.862 C 290.913 291.452, 289.652 291.301, 286.635 288.927 C 284.293 287.085, 284 286.163, 284 280.638 C 284 267.648, 290.793 250.983, 300.426 240.343 C 303.492 236.956, 305.998 233.581, 305.995 232.843 C 305.992 232.104, 304.288 229.250, 302.207 226.500 C 299.453 222.859, 296.669 220.637, 291.962 218.323 C 284.642 214.725, 280.762 214.048, 273.281 215.065 M 228.762 319.942 C 218.324 323.279, 210.211 329.689, 204.118 339.416 L 201.038 344.332 194.769 344.749 C 177.871 345.876, 160.539 357.222, 152.928 372.141 C 149.298 379.256, 151.555 386, 157.566 386 C 161.646 386, 163.822 384.284, 166.536 378.930 C 175.155 361.921, 197.173 354.612, 214.510 363.005 C 220.515 365.912, 226.624 371.483, 229.673 376.834 C 233.764 384.011, 235.918 386, 239.602 386 C 243.986 386, 247.414 381.822, 246.555 377.527 C 244.881 369.154, 233.277 356.003, 222.676 350.463 C 219.557 348.834, 217.004 347.152, 217.002 346.728 C 217.001 346.303, 218.842 343.957, 221.093 341.515 C 231.051 330.712, 247.728 330.327, 259.959 340.619 C 264.025 344.040, 268.595 344.219, 271.156 341.056 C 274.140 337.370, 273.530 333.236, 269.430 329.369 C 258.729 319.277, 242.564 315.530, 228.762 319.942" stroke="none" fill="#050504" fill-rule="evenodd"/></svg>